<mxfile host="65bd71144e">
    <diagram id="fBFkQ0HkI548m85OKlRE" name="ページ1">
        <mxGraphModel dx="1262" dy="1047" grid="1" gridSize="10" guides="1" tooltips="1" connect="1" arrows="1" fold="1" page="1" pageScale="1" pageWidth="827" pageHeight="1169" math="0" shadow="0">
            <root>
                <mxCell id="0"/>
                <mxCell id="1" parent="0"/>
                <mxCell id="2" value="VPC" style="outlineConnect=0;gradientColor=none;html=1;whiteSpace=wrap;fontSize=12;fontStyle=0;shape=mxgraph.aws4.group;grIcon=mxgraph.aws4.group_vpc;strokeColor=#879196;fillColor=none;verticalAlign=top;align=left;spacingLeft=30;fontColor=#879196;dashed=0;" vertex="1" parent="1">
                    <mxGeometry x="40" y="220" width="760" height="350" as="geometry"/>
                </mxCell>
                <mxCell id="11" value="" style="group" vertex="1" connectable="0" parent="1">
                    <mxGeometry x="490" y="300" width="240" height="160" as="geometry"/>
                </mxCell>
                <mxCell id="4" value="Private subnet" style="points=[[0,0],[0.25,0],[0.5,0],[0.75,0],[1,0],[1,0.25],[1,0.5],[1,0.75],[1,1],[0.75,1],[0.5,1],[0.25,1],[0,1],[0,0.75],[0,0.5],[0,0.25]];outlineConnect=0;gradientColor=none;html=1;whiteSpace=wrap;fontSize=12;fontStyle=0;shape=mxgraph.aws4.group;grIcon=mxgraph.aws4.group_security_group;grStroke=0;strokeColor=#147EBA;fillColor=#E6F2F8;verticalAlign=top;align=left;spacingLeft=30;fontColor=#147EBA;dashed=0;" vertex="1" parent="11">
                    <mxGeometry width="240" height="160" as="geometry"/>
                </mxCell>
                <mxCell id="9" value="10.10.1.0/24" style="text;html=1;resizable=0;autosize=1;align=center;verticalAlign=middle;points=[];fillColor=none;strokeColor=none;rounded=0;" vertex="1" parent="11">
                    <mxGeometry x="155" y="140" width="80" height="20" as="geometry"/>
                </mxCell>
                <mxCell id="10" value="" style="group" vertex="1" connectable="0" parent="1">
                    <mxGeometry x="120" y="300" width="240" height="160" as="geometry"/>
                </mxCell>
                <mxCell id="3" value="Private subnet" style="points=[[0,0],[0.25,0],[0.5,0],[0.75,0],[1,0],[1,0.25],[1,0.5],[1,0.75],[1,1],[0.75,1],[0.5,1],[0.25,1],[0,1],[0,0.75],[0,0.5],[0,0.25]];outlineConnect=0;gradientColor=none;html=1;whiteSpace=wrap;fontSize=12;fontStyle=0;shape=mxgraph.aws4.group;grIcon=mxgraph.aws4.group_security_group;grStroke=0;strokeColor=#147EBA;fillColor=#E6F2F8;verticalAlign=top;align=left;spacingLeft=30;fontColor=#147EBA;dashed=0;" vertex="1" parent="10">
                    <mxGeometry width="240" height="160" as="geometry"/>
                </mxCell>
                <mxCell id="8" value="10.10.0.0/24" style="text;html=1;resizable=0;autosize=1;align=center;verticalAlign=middle;points=[];fillColor=none;strokeColor=none;rounded=0;" vertex="1" parent="10">
                    <mxGeometry x="160" y="140" width="80" height="20" as="geometry"/>
                </mxCell>
                <mxCell id="6" value="Amazon EC2" style="outlineConnect=0;fontColor=#232F3E;gradientColor=none;strokeColor=#ffffff;fillColor=#232F3E;dashed=0;verticalLabelPosition=middle;verticalAlign=bottom;align=center;html=1;whiteSpace=wrap;fontSize=10;fontStyle=1;spacing=3;shape=mxgraph.aws4.productIcon;prIcon=mxgraph.aws4.ec2;" vertex="1" parent="1">
                    <mxGeometry x="575" y="360" width="70" height="85" as="geometry"/>
                </mxCell>
                <mxCell id="7" value="10.10.0.0/16" style="text;html=1;resizable=0;autosize=1;align=center;verticalAlign=middle;points=[];fillColor=none;strokeColor=none;rounded=0;" vertex="1" parent="1">
                    <mxGeometry x="50" y="540" width="80" height="20" as="geometry"/>
                </mxCell>
                <mxCell id="5" value="Amazon EC2" style="outlineConnect=0;fontColor=#232F3E;gradientColor=none;strokeColor=#ffffff;fillColor=#232F3E;dashed=0;verticalLabelPosition=middle;verticalAlign=bottom;align=center;html=1;whiteSpace=wrap;fontSize=10;fontStyle=1;spacing=3;shape=mxgraph.aws4.productIcon;prIcon=mxgraph.aws4.ec2;" vertex="1" parent="1">
                    <mxGeometry x="200" y="360" width="70" height="85" as="geometry"/>
                </mxCell>
                <mxCell id="12" value="" style="endArrow=classic;startArrow=classic;html=1;" edge="1" parent="1" source="5" target="6">
                    <mxGeometry width="50" height="50" relative="1" as="geometry">
                        <mxPoint x="380" y="405" as="sourcePoint"/>
                        <mxPoint x="430" y="355" as="targetPoint"/>
                    </mxGeometry>
                </mxCell>
                <mxCell id="17" style="edgeStyle=none;html=1;" edge="1" parent="1" source="16" target="5">
                    <mxGeometry relative="1" as="geometry"/>
                </mxCell>
                <mxCell id="16" value="AWS Systems Manager" style="outlineConnect=0;fontColor=#232F3E;gradientColor=none;strokeColor=#ffffff;fillColor=#232F3E;dashed=0;verticalLabelPosition=middle;verticalAlign=bottom;align=center;html=1;whiteSpace=wrap;fontSize=10;fontStyle=1;spacing=3;shape=mxgraph.aws4.productIcon;prIcon=mxgraph.aws4.systems_manager;" vertex="1" parent="1">
                    <mxGeometry x="190" y="85" width="80" height="110" as="geometry"/>
                </mxCell>
                <mxCell id="14" value="Endpoints" style="outlineConnect=0;fontColor=#232F3E;gradientColor=none;strokeColor=#232F3E;fillColor=#ffffff;dashed=0;verticalLabelPosition=bottom;verticalAlign=top;align=center;html=1;fontSize=12;fontStyle=0;aspect=fixed;shape=mxgraph.aws4.resourceIcon;resIcon=mxgraph.aws4.endpoints;" vertex="1" parent="1">
                    <mxGeometry x="210" y="270" width="50" height="50" as="geometry"/>
                </mxCell>
            </root>
        </mxGraphModel>
    </diagram>
</mxfile>